<svg width="32" height="32" viewBox="0 0 32 32" fill="none" xmlns="http://www.w3.org/2000/svg">
<path d="M16.2109 3.5C23.3814 3.5 29 9.34271 29 16.5381C29.0239 23.622 23.3326 29.388 16.2793 29.4258C13.7278 29.4258 12.5416 29.0521 10.4805 27.5557C9.17641 29.2389 5.04946 30.554 4.86914 28.3037C4.86914 26.614 4.49638 25.1857 4.07422 23.627C3.57136 21.7065 3 19.5676 3 16.4688C3.00021 9.06784 9.04685 3.50006 16.2109 3.5ZM16.3662 9.50977C12.671 9.31884 9.7912 11.8822 9.15332 15.9014C8.62733 19.2287 9.56086 23.2807 10.3564 23.4922C10.7377 23.5844 11.6975 22.8076 12.2959 22.208C13.2853 22.893 14.438 23.3041 15.6367 23.4004C19.4656 23.5849 22.7368 20.6637 22.9941 16.8311C23.1438 12.99 20.1958 9.73641 16.3662 9.5166V9.50977Z" fill="currentColor"/>
</svg>
