<svg width="27" height="23" viewBox="0 0 27 23" fill="none" xmlns="http://www.w3.org/2000/svg">
<path fill-rule="evenodd" clip-rule="evenodd" d="M24.0234 0.160034C25.4739 -0.450723 27.029 0.775846 26.7728 2.32877L23.7476 20.671C23.4559 22.4396 21.5135 23.4544 19.8909 22.5731C18.5332 21.8356 16.5188 20.7005 14.7034 19.5142C13.7968 18.9219 11.021 17.0224 11.3622 15.6703C11.6539 14.5142 16.3204 10.1702 18.9871 7.58691C20.0346 6.57213 19.5575 5.98596 18.3204 6.92027C15.2516 9.23801 10.3247 12.7619 8.69546 13.7536C7.2579 14.6285 6.50738 14.7779 5.61212 14.6285C3.97727 14.3561 2.46158 13.9343 1.22414 13.4214C-0.448346 12.728 -0.366878 10.4295 1.22301 9.76027L24.0234 0.160034Z" fill="currentColor"/>
</svg>
