<svg width="353" height="60" viewBox="0 0 353 60" fill="none" xmlns="http://www.w3.org/2000/svg">
<g clip-path="url(#clip0_2906_109)">
<path d="M180.307 49.1965C177.228 49.1965 174.283 48.6611 171.471 47.5901C168.705 46.4746 166.251 44.8681 164.109 42.7709C161.967 40.629 160.271 38.0632 159.022 35.0734C157.817 32.0391 157.214 28.5808 157.214 24.6986C157.214 21.3519 157.839 18.2506 159.089 15.3948C160.338 12.5389 162.056 10.04 164.242 7.89813C166.474 5.71161 169.062 4.01595 172.007 2.81113C174.952 1.60631 178.143 1.00391 181.578 1.00391C185.862 1.00391 189.744 1.94098 193.225 3.81514C196.706 5.64468 199.294 8.16587 200.989 11.3787L191.284 18.8084C190.347 16.9342 188.941 15.4394 187.067 14.3238C185.193 13.1636 183.207 12.5835 181.11 12.5835C179.548 12.5835 178.12 12.8959 176.826 13.5206C175.532 14.1453 174.394 15.0155 173.412 16.131C172.475 17.2466 171.739 18.5853 171.204 20.1471C170.713 21.6643 170.467 23.3376 170.467 25.1672C170.467 27.0413 170.735 28.737 171.271 30.2542C171.806 31.7713 172.542 33.0877 173.479 34.2033C174.461 35.2742 175.621 36.1221 176.96 36.7468C178.299 37.3269 179.794 37.6169 181.445 37.6169C183.542 37.6169 185.55 37.1038 187.469 36.0774C189.388 35.0065 191.128 33.5116 192.69 31.5928V44.3103C189.12 47.5678 184.992 49.1965 180.307 49.1965ZM192.02 32.9315H183.252V23.5607H202.797V48.8619H192.02V32.9315Z" fill="currentColor"/>
<path d="M122.348 25.5011V48.8612H109.296V1.33789H119.47L138.546 25.5011V1.33789H151.598V48.8612H141.224L122.348 25.5011Z" fill="currentColor"/>
<path d="M73.4936 1.33789L82.7975 33.801L91.9675 1.33789H105.689L89.2901 48.8612H76.3048L59.7051 1.33789H73.4936Z" fill="currentColor"/>
<path d="M33.0975 36.1192C34.7198 40.6827 30.7631 45.2765 26.079 44.2681C23.9701 43.814 22.2536 42.2677 21.5623 40.1993L15.9324 23.3525C15.2548 21.3248 15.6917 19.0852 17.0798 17.471C20.0577 14.008 25.6138 15.064 27.1496 19.385L33.0975 36.1192Z" fill="currentColor"/>
<path d="M55.4292 40.5533C57.0163 45.1649 52.958 49.7419 48.1808 48.7283C46.0336 48.2724 44.2799 46.7308 43.5556 44.6617L31.5936 10.488C30.8243 8.29029 31.3174 5.84853 32.8799 4.1203C36.1355 0.519021 42.0674 1.72964 43.6463 6.31757L55.4292 40.5533Z" fill="currentColor"/>
<path d="M10.8765 32.6472C12.2004 36.7284 8.613 40.713 4.41813 39.8209C0.223295 38.9291 -1.43397 33.8289 1.43465 30.6396C4.30482 27.4485 9.5518 28.5643 10.8765 32.6472Z" fill="currentColor"/>
<path d="M334.847 48.862L326.882 36.0106L324.338 38.8218V48.862H311.621V0H324.338V26.7068L333.709 13.6546H347.096L334.981 29.0494L348.301 48.862H334.847Z" fill="currentColor"/>
<path d="M305.458 48.8626H292.74V29.05C292.74 27.3098 292.338 26.0603 291.535 25.3017C290.777 24.4985 289.884 24.0969 288.858 24.0969C288.144 24.0969 287.385 24.32 286.582 24.7663C285.779 25.1679 285.043 25.748 284.373 26.5066C283.704 27.2651 283.168 28.1353 282.767 29.117V48.8626H270.049V13.6552H281.495V18.876C282.343 17.582 283.414 16.511 284.708 15.6632C286.002 14.7707 287.497 14.1014 289.193 13.6552C290.888 13.209 292.74 12.9858 294.748 12.9858C297.158 12.9858 299.077 13.4098 300.504 14.2576C301.932 15.1054 303.003 16.1987 303.717 17.5374C304.431 18.876 304.9 20.2817 305.123 21.7542C305.346 23.1822 305.458 24.4985 305.458 25.7033V48.8626Z" fill="currentColor"/>
<path d="M250.896 48.862V13.6546H263.614V48.862H250.896ZM250.896 10.7095V0H263.614V10.7095H250.896Z" fill="currentColor"/>
<path d="M212.613 48.8617V1.33838H225.665V37.4829H247.218V48.8617H212.613Z" fill="currentColor"/>
</g>
<defs>
<clipPath id="clip0_2906_109">
<rect width="353" height="60" fill="currentColor"/>
</clipPath>
</defs>
</svg>
