<svg width="20" height="20" viewBox="0 0 20 20" fill="none" xmlns="http://www.w3.org/2000/svg">
<path d="M19.1737 15.1894L19.1344 0.0494402L3.99446 0.0101551C3.83672 -0.0112012 3.67624 0.00158264 3.52388 0.0476399C3.37151 0.0936979 3.23082 0.171957 3.11133 0.277115C2.99184 0.382273 2.89633 0.511877 2.83129 0.657153C2.76624 0.80243 2.73316 0.959986 2.7343 1.11916C2.73544 1.27833 2.77076 1.4354 2.83788 1.57973C2.90499 1.72406 3.00234 1.85229 3.12332 1.95573C3.2443 2.05917 3.38609 2.13541 3.5391 2.17928C3.69211 2.22316 3.85276 2.23365 4.01017 2.21004L15.3553 2.25719L0.325362 17.2871C0.116988 17.4955 -7.48997e-05 17.7781 -7.48997e-05 18.0728C-7.48997e-05 18.3675 0.116988 18.6501 0.325362 18.8585C0.533736 19.0669 0.816352 19.1839 1.11104 19.1839C1.40572 19.1839 1.68834 19.0669 1.89671 18.8585L16.9267 3.82853L16.9738 15.1737C16.9748 15.4685 17.093 15.7509 17.3022 15.9586C17.5114 16.1664 17.7946 16.2825 18.0895 16.2815C18.3843 16.2804 18.6667 16.1623 18.8744 15.9531C19.0822 15.7438 19.1983 15.4607 19.1973 15.1658L19.1737 15.1894Z" fill="currentColor"/>
</svg>
