<svg width="48" height="48" viewBox="0 0 48 48" fill="none" xmlns="http://www.w3.org/2000/svg">
<path d="M19.1517 2.52927C23.7791 1.4838 28.6211 1.96173 32.9544 3.89256C33.9632 4.34215 34.4166 5.52527 33.9671 6.53416C33.5175 7.54269 32.3352 7.99607 31.3265 7.54685C27.781 5.96709 23.8196 5.57529 20.0335 6.43064C16.2476 7.28602 12.8396 9.34257 10.3177 12.2929C7.79583 15.2435 6.29483 18.9306 6.03938 22.8037C5.78399 26.6767 6.7872 30.5289 8.89973 33.7851C11.0123 37.0413 14.1211 39.5278 17.762 40.873C21.4029 42.2181 25.3817 42.3504 29.1038 41.25C32.826 40.1494 36.0932 37.8744 38.4173 34.7656C40.741 31.6572 41.9978 27.8809 42.0003 24V22.1601C42.0003 21.0556 42.8958 20.1601 44.0003 20.1601C45.1048 20.1602 46.0003 21.0556 46.0003 22.1601V24.001C45.9976 28.745 44.4609 33.3614 41.6204 37.1611C38.7799 40.9606 34.7869 43.7408 30.2376 45.0859C25.6884 46.4308 20.8262 46.2689 16.3763 44.625C11.9263 42.9809 8.12639 39.9426 5.54427 35.9629C2.96218 31.9831 1.73608 27.2748 2.04817 22.541C2.36032 17.8071 4.19433 13.3007 7.27669 9.69431C10.359 6.08814 14.5244 3.57481 19.1517 2.52927Z" fill="currentColor"/>
<path d="M42.5853 6.58689C43.3659 5.80563 44.632 5.80458 45.4134 6.58494C46.1946 7.36549 46.1956 8.63162 45.4154 9.41306L25.4154 29.4336C25.0405 29.8088 24.5317 30.0192 24.0013 30.0195C23.4708 30.0196 22.9614 29.8095 22.5863 29.4345L16.5863 23.4345C15.8052 22.6535 15.8052 21.3865 16.5863 20.6054C17.3673 19.8248 18.6334 19.8247 19.4144 20.6054L23.9993 25.1904L42.5853 6.58689Z" fill="currentColor"/>
</svg>
