<svg width="238" height="34" viewBox="0 0 238 34" fill="none" xmlns="http://www.w3.org/2000/svg">
<path d="M122.78 33.5007C120.684 33.5007 118.678 33.1361 116.764 32.4068C114.88 31.6472 113.209 30.5533 111.75 29.1251C110.292 27.6666 109.137 25.9194 108.286 23.8835C107.466 21.8172 107.056 19.4623 107.056 16.8187C107.056 14.5398 107.481 12.4279 108.332 10.4832C109.183 8.5385 110.353 6.83688 111.841 5.37834C113.361 3.88942 115.123 2.73475 117.129 1.91432C119.134 1.0939 121.307 0.683685 123.646 0.683685C126.564 0.683685 129.207 1.32179 131.577 2.59801C133.947 3.84384 135.71 5.56066 136.864 7.74846L130.255 12.8077C129.617 11.5315 128.66 10.5136 127.384 9.75394C126.108 8.9639 124.756 8.56888 123.327 8.56888C122.264 8.56888 121.292 8.78159 120.41 9.207C119.529 9.6324 118.754 10.2249 118.086 10.9846C117.448 11.7442 116.946 12.6558 116.582 13.7193C116.247 14.7525 116.08 15.8919 116.08 17.1378C116.08 18.414 116.263 19.5687 116.627 20.6018C116.992 21.6349 117.493 22.5313 118.131 23.291C118.8 24.0202 119.59 24.5976 120.502 25.023C121.413 25.418 122.431 25.6155 123.555 25.6155C124.983 25.6155 126.351 25.2661 127.657 24.5672C128.964 23.8379 130.149 22.82 131.213 21.5134V30.1734C128.782 32.3916 125.971 33.5007 122.78 33.5007ZM130.757 22.425H124.786V16.0439H138.095V33.2728H130.757V22.425Z" fill="#232426"/>
<path d="M83.3132 17.3657V33.2728H74.4253V0.911575H81.3533L94.3434 17.3657V0.911575H103.231V33.2728H96.1666L83.3132 17.3657Z" fill="#232426"/>
<path d="M50.0461 0.911575L56.3816 23.0175L62.6259 0.911575H71.9696L60.8027 33.2728H51.9604L40.6567 0.911575H50.0461Z" fill="#232426"/>
<path d="M22.5375 24.5954C23.6422 27.703 20.9479 30.8311 17.7583 30.1444C16.3222 29.8352 15.1533 28.7822 14.6826 27.3738L10.8489 15.9018C10.3875 14.5211 10.685 12.996 11.6302 11.8968C13.658 9.53865 17.4415 10.2578 18.4873 13.2002L22.5375 24.5954Z" fill="#001F85"/>
<path d="M37.7447 27.6151C38.8255 30.7553 36.0619 33.8721 32.8089 33.1819C31.3467 32.8714 30.1526 31.8216 29.6594 30.4127L21.5138 7.14197C20.9899 5.64541 21.3257 3.98268 22.3897 2.80583C24.6066 0.353521 28.646 1.1779 29.7211 4.30207L37.7447 27.6151Z" fill="#001F85"/>
<path d="M7.40636 22.2305C8.30791 25.0096 5.86505 27.723 3.00854 27.1155C0.152053 26.5082 -0.976466 23.0352 0.976927 20.8634C2.93138 18.6905 6.50433 19.4502 7.40636 22.2305Z" fill="#001F85"/>
<path d="M228.015 33.2728L222.591 24.5216L220.859 26.4359V33.2728H212.199V0H220.859V18.1861L227.24 9.29815H236.356L228.106 19.7814L237.177 33.2728H228.015Z" fill="#001F85"/>
<path d="M208.002 33.2728H199.342V19.7814C199.342 18.5963 199.068 17.7455 198.522 17.2289C198.005 16.682 197.397 16.4085 196.698 16.4085C196.212 16.4085 195.696 16.5604 195.149 16.8643C194.602 17.1378 194.1 17.5328 193.645 18.0493C193.189 18.5659 192.824 19.1584 192.551 19.8269V33.2728H183.891V9.29814H191.685V12.8533C192.262 11.9721 192.991 11.2428 193.872 10.6655C194.754 10.0578 195.772 9.602 196.926 9.29814C198.081 8.99428 199.342 8.84235 200.709 8.84235C202.35 8.84235 203.657 9.13101 204.629 9.70835C205.602 10.2857 206.331 11.0301 206.817 11.9417C207.303 12.8533 207.622 13.8105 207.774 14.8132C207.926 15.7856 208.002 16.682 208.002 17.5024V33.2728Z" fill="#001F85"/>
<path d="M170.849 33.2728V9.29815H179.509V33.2728H170.849ZM170.849 7.29267V0H179.509V7.29267H170.849Z" fill="#001F85"/>
<path d="M144.779 33.2728V0.911575H153.667V25.5243H168.344V33.2728H144.779Z" fill="#001F85"/>
</svg>
